<svg xmlns="http://www.w3.org/2000/svg" viewBox="0 0 900 600"><defs><linearGradient id="bg" x1="0" y1="0" x2="1" y2="1"><stop stop-color="#173b55"/><stop offset="1" stop-color="#06131e"/></linearGradient><linearGradient id="steel" x1="0" x2="1"><stop stop-color="#536a79"/><stop offset=".5" stop-color="#d8e2e8"/><stop offset="1" stop-color="#415563"/></linearGradient></defs><rect width="900" height="600" fill="url(#bg)"/><path d="M80 520h740" stroke="#657d8c" stroke-width="4"/><path d="M140 520L155 170M365 520L375 145M600 520L608 120M790 520L795 185" stroke="url(#steel)" stroke-width="20"/><path d="M135 205h185M355 175h205M590 150h170" stroke="#b9c9d3" stroke-width="9"/><path d="M90 125C300 155 520 80 820 130" fill="none" stroke="#d4e0e6" stroke-width="5"/><path d="M90 155C300 185 520 110 820 160" fill="none" stroke="#7892a3" stroke-width="3"/><g fill="#dbe6ec"><circle cx="155" cy="170" r="8"/><circle cx="375" cy="145" r="8"/><circle cx="608" cy="120" r="8"/><circle cx="795" cy="185" r="8"/></g><path d="M0 560L900 560" stroke="#173047" stroke-width="70"/><path d="M0 550L900 550M0 575L900 575" stroke="#9aa9b4" stroke-width="4"/><text x="48" y="70" fill="#dce9f1" font-family="Arial" font-size="28" letter-spacing="5">КОНТАКТНАЯ СЕТЬ</text></svg>
