<svg xmlns="http://www.w3.org/2000/svg" viewBox="0 0 800 520">
<defs><linearGradient id="bg" x1="0" y1="0" x2="1" y2="1"><stop stop-color="#102b40"/><stop offset="1" stop-color="#061522"/></linearGradient><linearGradient id="steel" x1="0" y1="0" x2="1" y2="0"><stop stop-color="#526b7d"/><stop offset=".45" stop-color="#d7e0e6"/><stop offset=".62" stop-color="#72899a"/><stop offset="1" stop-color="#263d4d"/></linearGradient></defs>
<rect width="800" height="520" fill="url(#bg)"/><path d="M0 430H800" stroke="#23445b" stroke-width="2"/><path d="M570 430L615 82" stroke="#0a1118" stroke-width="25"/><path d="M568 430L610 82" stroke="url(#steel)" stroke-width="14"/><path d="M610 92 Q620 80 640 78 L735 78" fill="none" stroke="#bfcbd3" stroke-width="12"/><path d="M730 70 L770 82 L735 94Z" fill="#dce5ea"/><ellipse cx="751" cy="82" rx="28" ry="8" fill="#fff3c4" opacity=".9"/><path d="M605 155h30M599 235h32M591 320h36" stroke="#aabac5" stroke-width="5" opacity=".7"/><g opacity=".3" fill="#76b9ea"><circle cx="110" cy="390" r="3"/><circle cx="170" cy="360" r="2"/><circle cx="240" cy="405" r="3"/><circle cx="310" cy="370" r="2"/></g><text x="45" y="70" fill="#8fb4d0" font-family="Arial" font-size="18" letter-spacing="4">ОСВЕЩЕНИЕ</text><text x="45" y="105" fill="#eaf2f7" font-family="Arial" font-size="30" font-weight="700">ГРАНЁНАЯ ОПОРА</text></svg>
